<svg aria-hidden="true" style="width:0;height:0;position:absolute;overflow:hidden" xmlns="http://www.w3.org/2000/svg"><defs><symbol id="user" viewBox="0 0 32 32"><path fill="#f6f6f6" style="fill:var(--color1,#f6f6f6)" d="M32 16c0 8.837-7.163 16-16 16S0 24.837 0 16 7.163 0 16 0s16 7.163 16 16z"/><path fill="#4f2ee8" style="fill:var(--color2,#4f2ee8)" d="M10.523 22.847a5.477 5.477 0 1 1 10.954 0H10.522zM16 16.685c-2.27 0-4.108-1.838-4.108-4.108S13.73 8.469 16 8.469c2.27 0 4.108 1.838 4.108 4.108S18.27 16.685 16 16.685z"/></symbol><symbol id="down" viewBox="0 0 32 32"><path fill="#4f2ee8" style="fill:var(--color2,#4f2ee8)" d="M15.053 17.867a1.334 1.334 0 0 0 1.894 0l6.107-6.12a1.344 1.344 0 0 1 .947-.395 1.331 1.331 0 0 1 .947.395 1.336 1.336 0 0 1 0 1.88l-6.12 6.12a4.001 4.001 0 0 1-5.654 0l-6.12-6.12a1.337 1.337 0 0 1 .434-2.172 1.331 1.331 0 0 1 1.46.292l6.107 6.12z"/></symbol><symbol id="basket" viewBox="0 0 32 32"><path fill="none" stroke="#fff" style="stroke:var(--color3,#fff)" stroke-linejoin="round" stroke-linecap="round" stroke-width="2.909" d="M12 4h8M4 8h24m-2.667 0-.935 14.026c-.14 2.104-.21 3.157-.665 3.954a4 4 0 0 1-1.731 1.619c-.826.4-1.881.4-3.99.4h-4.025c-2.109 0-3.163 0-3.99-.4a4.005 4.005 0 0 1-1.731-1.619c-.455-.798-.525-1.85-.665-3.954L6.666 8m6.667 6v6.667M18.667 14v6.667"/></symbol><symbol id="ua" viewBox="0 0 20 32"><path d="M9.005 30.888a8.64 8.64 0 0 1-3.414-5.351H0V2.42c2.991 1.443 5.153 4.599 5.388 7.876l.846 6.493-.407-.045c-.893 0-1.676.812-1.676 1.608 0 .752.595 1.383 1.378 1.548l1.018.226c1.676-3.051 2.631-6.042 2.631-8.973 0-2.645-.36-5.291-.423-7.996 0-1.202.486-2.3 1.253-3.156.783.857 1.253 1.954 1.253 3.156 0 2.705-.423 5.351-.423 7.996 0 2.931.955 5.922 2.631 8.973l1.018-.226c.783-.165 1.378-.812 1.378-1.548 0-.812-.783-1.608-1.676-1.608l-.423.06.846-6.493c.423-3.277 2.396-6.448 5.388-7.876v23.117h-5.576c-.423 2.179-1.613 4.148-3.414 5.351-.423.286-.783.631-1.018 1.097-.219-.466-.579-.812-.987-1.112zM2.647 17.556c.235-.857.893-1.608 1.738-2.074l-.658-5.351a8.288 8.288 0 0 0-2.036-4.374v11.784h.955v.015zm2.819 6.373c0-.812.125-1.548.298-2.3l-.783-.18c-1.143-.346-2.036-1.203-2.334-2.3h-.955v4.78h3.774zm3.712 0c0-.977-.783-1.834-1.801-1.954-.172.631-.298 1.263-.298 1.954h2.099zm0 1.623H7.314c.298 1.263.955 2.42 1.864 3.397v-3.397zm2.631-5.005c-.72-1.262-1.378-2.585-1.801-3.968-.423 1.383-1.081 2.706-1.801 3.968.72.165 1.316.631 1.801 1.157.486-.526 1.081-.992 1.801-1.157zm1.143 3.382c0-.691-.125-1.323-.297-1.954-1.018.12-1.801.977-1.801 1.954h2.099zm-.235 1.623h-1.864v3.397c.908-.992 1.566-2.134 1.864-3.397zm5.623-1.623v-4.78h-.955c-.298 1.097-1.206 1.954-2.334 2.3l-.783.18c.172.752.298 1.488.298 2.3h3.774zm0-6.373V5.757c-1.081 1.202-1.864 2.706-2.036 4.374l-.658 5.351c.846.466 1.504 1.203 1.739 2.074h.955z"/></symbol><symbol id="old-bag" viewBox="0 0 32 32"><path d="M25.334 9.333h-4V8a5.332 5.332 0 1 0-10.666 0v1.333h-4a1.335 1.335 0 0 0-1.334 1.334v14.667a4.003 4.003 0 0 0 4 4h13.333a4.003 4.003 0 0 0 4-4V10.667a1.335 1.335 0 0 0-1.334-1.334zM13.334 8a2.668 2.668 0 0 1 5.334 0v1.333h-5.333V8zM24 25.333a1.335 1.335 0 0 1-1.334 1.334H9.333a1.335 1.335 0 0 1-1.334-1.334V12h2.667v1.333a1.335 1.335 0 0 0 2.277.943c.25-.251.39-.589.39-.943V12h5.333v1.333a1.335 1.335 0 0 0 2.277.943c.25-.251.391-.589.391-.943V12h2.667v13.333z"/></symbol><symbol id="new-bag" viewBox="0 0 32 32"><path d="M25.333 9.333h-4V8a5.333 5.333 0 1 0-10.666 0v1.333h-4c-.736 0-1.333.597-1.333 1.333v14.667a4 4 0 0 0 4 4h13.333a4 4 0 0 0 4-4V10.666c0-.736-.597-1.333-1.333-1.333zM13.333 8a2.667 2.667 0 1 1 5.334 0v1.333h-5.333zM24 25.333c0 .736-.597 1.333-1.333 1.333H9.334a1.333 1.333 0 0 1-1.333-1.333V12h2.667v1.333a1.333 1.333 0 0 0 2.666 0V12h5.333v1.333a1.333 1.333 0 0 0 2.666 0V12H24z"/></symbol><symbol id="logo" viewBox="0 0 32 32"><path fill="#f6f6f6" style="fill:var(--color1,#f6f6f6)" d="m0 0 16.343 16.171L32 32V0H0z"/><path fill="#f6f6f6" style="fill:var(--color1,#f6f6f6)" d="M4.457 4.229 16.4 16.058l11.257 11.486h-23.2V4.23z"/><path fill="#4f2ee8" style="fill:var(--color2,#4f2ee8)" d="M27.733 27.618 15.79 15.789 4.533 4.303h23.2v23.314z"/><path fill="#4f2ee8" style="fill:var(--color2,#4f2ee8)" d="m9.257 9.029 13.6 13.6h-13.6v-13.6z"/><path fill="#f6f6f6" style="fill:var(--color1,#f6f6f6)" d="m9.257 9.029 13.6 13.6v-13.6h-13.6z"/></symbol><symbol id="up" viewBox="0 0 32 32"><path fill="#fff" style="fill:var(--color3,#fff)" d="M4.5 19.6 15.7 8.367c.133-.133.278-.228.433-.283s.322-.084.5-.084.345.028.5.084.3.149.433.283L28.799 19.6c.311.311.467.7.467 1.167s-.167.867-.5 1.2c-.333.333-.722.5-1.167.5s-.833-.167-1.167-.5l-9.8-9.8-9.8 9.8c-.311.311-.694.467-1.149.467s-.851-.167-1.184-.5-.5-.722-.5-1.167c0-.444.167-.833.5-1.167z"/></symbol><symbol id="icon-cross-btn" viewBox="0 0 30 32"><path d="M1.683 1.653a2.36 2.36 0 0 1 3.336.029l23.644 24.06a2.36 2.36 0 0 1-3.365 3.307L1.654 4.989a2.36 2.36 0 0 1 .029-3.336z"/><path d="M1.683 29.079a2.36 2.36 0 0 1-.029-3.336l23.644-24.06a2.36 2.36 0 0 1 3.365 3.307L5.019 29.05a2.36 2.36 0 0 1-3.336.029z"/></symbol><symbol id="post" viewBox="0 0 32 32"><path stroke-linejoin="round" stroke-linecap="round" stroke-width="2.462" d="M29.641 24.615 20.103 16m-8.206 0-9.538 8.615M1.641 8.821l11.724 8.207c.949.665 1.424.997 1.94 1.126.456.114.933.114 1.389 0 .516-.129.991-.461 1.94-1.126l11.724-8.207M8.533 27.487h14.933c2.413 0 3.619 0 4.54-.47a4.303 4.303 0 0 0 1.882-1.883c.47-.921.47-2.128.47-4.54v-9.19c0-2.413 0-3.619-.47-4.54a4.308 4.308 0 0 0-1.882-1.883c-.921-.47-2.128-.47-4.54-.47H8.533c-2.413 0-3.619 0-4.54.47A4.305 4.305 0 0 0 2.11 6.864c-.47.921-.47 2.128-.47 4.54v9.19c0 2.412 0 3.619.47 4.54a4.305 4.305 0 0 0 1.883 1.883c.921.47 2.128.47 4.54.47z"/></symbol><symbol id="lock" viewBox="0 0 32 32"><path stroke-linejoin="round" stroke-linecap="round" stroke-width="2.667" d="M23.778 14.444V9.777c0-4.296-3.482-7.778-7.778-7.778S8.222 5.481 8.222 9.777v4.667M9.467 30h13.067c2.614 0 3.92 0 4.919-.509a4.662 4.662 0 0 0 2.039-2.039c.509-.998.509-2.305.509-4.919v-.622c0-2.614 0-3.92-.509-4.919a4.662 4.662 0 0 0-2.039-2.039c-.998-.509-2.305-.509-4.919-.509H9.467c-2.614 0-3.92 0-4.919.509a4.662 4.662 0 0 0-2.039 2.039C2 17.99 2 19.297 2 21.911v.622c0 2.614 0 3.92.509 4.919a4.662 4.662 0 0 0 2.039 2.039C5.546 30 6.853 30 9.467 30z"/></symbol><symbol id="myMenu" viewBox="0 0 45 32"><path d="M0 1.882C0 .842.843 0 1.882 0h41.412a1.882 1.882 0 1 1 0 3.764H1.882A1.882 1.882 0 0 1 0 1.882zM1.882 9.412h28.235a1.882 1.882 0 1 1 0 3.764H1.882a1.882 1.882 0 1 1 0-3.764zM1.882 18.824h41.412a1.882 1.882 0 1 1 0 3.764H1.882a1.882 1.882 0 1 1 0-3.764zM1.882 28.235h28.235a1.882 1.882 0 1 1 0 3.764H1.882a1.882 1.882 0 1 1 0-3.764z"/></symbol><symbol id="scroll-up" viewBox="0 0 32 32"><path fill="#4f2ee8" style="fill:var(--color2,#4f2ee8)" d="M16.053 14.133a1.334 1.334 0 0 0-1.894 0l-6.107 6.12a1.344 1.344 0 0 1-.947.395 1.331 1.331 0 0 1-.947-.395 1.336 1.336 0 0 1 0-1.88l6.12-6.12a4.001 4.001 0 0 1 5.654 0l6.12 6.12a1.337 1.337 0 0 1-.434 2.172 1.331 1.331 0 0 1-1.46-.292l-6.107-6.12z"/></symbol></defs></svg>