<?xml version="1.0" standalone="no"?>
<!DOCTYPE svg PUBLIC "-//W3C//DTD SVG 20010904//EN"
 "http://www.w3.org/TR/2001/REC-SVG-20010904/DTD/svg10.dtd">
<svg version="1.0" xmlns="http://www.w3.org/2000/svg"
 width="512.000000pt" height="512.000000pt" viewBox="0 0 512.000000 512.000000"
 preserveAspectRatio="xMidYMid meet">
<metadata>
Created by potrace 1.14, written by Peter Selinger 2001-2017
</metadata>
<g transform="translate(0.000000,512.000000) scale(0.100000,-0.100000)"
fill="#000000" stroke="none">
<path d="M960 4094 c0 -3 142 -150 315 -326 l315 -320 0 -914 0 -914 908 0
909 0 341 -336 342 -336 0 1576 0 1576 -1565 0 c-861 0 -1565 -3 -1565 -6z
m2470 -1549 c0 -503 -1 -915 -3 -915 -1 0 -414 412 -917 915 l-915 915 918 0
917 0 0 -915z"/>
</g>
</svg>
